<svg xmlns="http://www.w3.org/2000/svg" xmlns:xlink="http://www.w3.org/1999/xlink" viewBox="0,0,256,256" width="128px" height="128px" fill-rule="nonzero"><g fill-opacity="0" fill="#dddddd" fill-rule="nonzero" stroke="none" stroke-width="1" stroke-linecap="butt" stroke-linejoin="miter" stroke-miterlimit="10" stroke-dasharray="" stroke-dashoffset="0" font-family="none" font-weight="none" font-size="none" text-anchor="none" style="mix-blend-mode: normal"><path d="M0,256v-256h256v256z" id="bgRectangle"></path></g><g fill="none" fill-rule="nonzero" stroke="none" stroke-width="1" stroke-linecap="butt" stroke-linejoin="miter" stroke-miterlimit="10" stroke-dasharray="" stroke-dashoffset="0" font-family="none" font-weight="none" font-size="none" text-anchor="none" style="mix-blend-mode: normal"><g transform="scale(4,4)"><g><path d="M29,33v6c0,1.65685 1.34315,3 3,3c1.65685,0 3,-1.34315 3,-3v-6z" fill="#ffd3b6"></path><path d="M55,51v12h-46v-12c0,-6.62742 5.37258,-12 12,-12h8c0,1.65685 1.34315,3 3,3c1.65685,0 3,-1.34315 3,-3h8c6.62742,0 12,5.37258 12,12z" fill="#fcab68"></path><path d="M24,60c-6.62742,0 -12,-5.37258 -12,-12v0c-0.00224,-2.44939 0.74907,-4.84018 2.152,-6.848c-3.22881,2.23879 -5.15409,5.91895 -5.152,9.848v12h46v-3z" fill="#ea8e49"></path><path d="M21,11h22v13c0,6.07513 -4.92487,11 -11,11v0c-6.07513,0 -11,-4.92487 -11,-11z" fill="#ffd3b6"></path><path d="M29,36.575c1.95986,0.56671 4.04014,0.56671 6,0v-3.575h-6z" fill="#f9b995"></path><path d="M35,32c-6.07513,0 -11,-4.92487 -11,-11v-10h-3v13c0.00018,4.84043 3.16449,9.11191 7.79489,10.52228c4.6304,1.41037 9.6386,-0.37185 12.33711,-4.39028c-1.81177,1.22069 -3.94738,1.87126 -6.132,1.868z" fill="#f9b995"></path><path d="M20,13h1v6h-1c-1.65685,0 -3,-1.34315 -3,-3v0c0,-1.65685 1.34315,-3 3,-3z" fill="#f9b995"></path><path transform="translate(90,32) rotate(-180)" d="M46,13h1v6h-1c-1.65685,0 -3,-1.34315 -3,-3v0c0,-1.65685 1.34315,-3 3,-3z" fill="#f9b995"></path><path d="M43,16l-4,-5l-0.828,0.828c-0.75022,0.75044 -1.76787,1.17204 -2.829,1.172h-10.343c-4.41828,0 -8,-3.58172 -8,-8v-4h21.5c0.82843,0 1.5,0.67157 1.5,1.5v1c0,0.82843 0.67157,1.5 1.5,1.5v0c0.82843,0 1.5,0.67157 1.5,1.5z" fill="#7a838b"></path><rect x="24" y="16" width="6" height="6" fill="#a7d0e1"></rect><rect x="34" y="16" width="6" height="6" fill="#a7d0e1"></rect><path d="M43.2,61.221l1.555,-14c0.06291,-0.56582 -0.1183,-1.13163 -0.4982,-1.55563c-0.3799,-0.424 -0.9225,-0.66601 -1.4918,-0.66537h-25.53c-0.56895,-0.00007 -1.11101,0.24218 -1.49047,0.66612c-0.37946,0.42393 -0.5604,0.98941 -0.49753,1.55488l1.555,14c0.11262,1.0129 0.96886,1.77913 1.988,1.779h22.42c1.0199,0.00115 1.8773,-0.76534 1.99,-1.779z" fill="#ea8e49"></path><path d="M43.21,63h-22.42c-1.0199,0.00115 -1.8773,-0.76534 -1.99,-1.779l-1.555,-14c-0.06291,-0.56582 0.1183,-1.13163 0.4982,-1.55563c0.3799,-0.424 0.9225,-0.66601 1.4918,-0.66537h25.53c0.56895,-0.00007 1.11101,0.24218 1.49047,0.66612c0.37946,0.42393 0.5604,0.98941 0.49753,1.55488l-1.555,14c-0.11262,1.0129 -0.96886,1.77913 -1.988,1.779z" fill="#a7d0e1"></path><path d="M36.321,60c-8.15194,-0.00108 -14.99972,-6.13093 -15.9,-14.233l-0.088,-0.767h-1.1c-0.56895,-0.00007 -1.11101,0.24218 -1.49047,0.66612c-0.37946,0.42393 -0.5604,0.98941 -0.49753,1.55488l1.555,14c0.1127,1.01366 0.9701,1.78015 1.99,1.779h22.42c1.0199,0.00115 1.8773,-0.76534 1.99,-1.779l0.133,-1.221z" fill="#80bbce"></path><circle cx="32" cy="54" r="3" fill="#7a838b"></circle><path d="M41.172,8.828v0c-0.75022,0.75044 -1.76787,1.17204 -2.829,1.172h-10.343c-4.41828,0 -8,-3.58172 -8,-8v-1h-3v4c0,4.41828 3.58172,8 8,8h10.343c1.06113,0.00004 2.07878,-0.42156 2.829,-1.172l0.828,-0.828l4,5v-6.75l-0.268,-0.335c-0.18613,-0.23306 -0.46274,-0.37577 -0.76054,-0.39238c-0.2978,-0.01661 -0.58857,0.09446 -0.79946,0.30538z" fill="#5d6972"></path><path d="M38,4h-2c-0.55228,0 -1,-0.44772 -1,-1c0,-0.55228 0.44772,-1 1,-1h2c0.55228,0 1,0.44772 1,1c0,0.55228 -0.44772,1 -1,1z" fill="#ffffff"></path><path d="M27,17v-1h-3v6h6v-3h-1c-1.10457,0 -2,-0.89543 -2,-2z" fill="#80bbce"></path><path d="M37,17v-1h-3v6h6v-3h-1c-1.10457,0 -2,-0.89543 -2,-2z" fill="#80bbce"></path><path d="M43,38h-7v-2.7c4.78793,-1.69595 7.99121,-6.22059 8,-11.3v-4c2.20914,0 4,-1.79086 4,-4c0,-2.20914 -1.79086,-4 -4,-4v-5.5c0,-1.38071 -1.11929,-2.5 -2.5,-2.5c-0.27614,0 -0.5,-0.22386 -0.5,-0.5v-1c0,-1.38071 -1.11929,-2.5 -2.5,-2.5h-21.5c-0.55228,0 -1,0.44772 -1,1v4c0.00158,2.7541 1.26658,5.35524 3.432,7.057c-2.07766,0.29254 -3.57403,2.14387 -3.42438,4.23668c0.14966,2.09281 1.89423,3.71238 3.99238,3.70632v4c0.00879,5.07941 3.21207,9.60405 8,11.3v2.7h-7c-7.17628,0.00827 -12.99173,5.82372 -13,13v12c0,0.55228 0.44772,1 1,1h46c0.55228,0 1,-0.44772 1,-1v-12c-0.00827,-7.17628 -5.82372,-12.99173 -13,-13zM46,16c0,1.10457 -0.89543,2 -2,2v-4c1.10457,0 2,0.89543 2,2zM18,16c0,-1.10457 0.89543,-2 2,-2h15.343c1.327,0.00341 2.60024,-0.5241 3.536,-1.465l0.828,-0.828c0.37897,-0.39238 0.37355,-1.01608 -0.01218,-1.40182c-0.38573,-0.38573 -1.00944,-0.39115 -1.40182,-0.01218l-0.828,0.828c-0.56147,0.56477 -1.32563,0.88131 -2.122,0.879h-10.343c-3.86394,-0.00496 -6.99504,-3.13606 -7,-7v-3h20.5c0.27614,0 0.5,0.22386 0.5,0.5v1c0,1.38071 1.11929,2.5 2.5,2.5c0.27614,0 0.5,0.22386 0.5,0.5v6.649l-0.619,-0.774c-0.34518,-0.43161 -0.97489,-0.50168 -1.4065,-0.1565c-0.43161,0.34518 -0.50168,0.97489 -0.1565,1.4065l2.182,2.727v1.648h-1v-2c0,-0.55228 -0.44772,-1 -1,-1h-6c-0.55228,0 -1,0.44772 -1,1v2h-2v-2c0,-0.55228 -0.44772,-1 -1,-1h-6c-0.55228,0 -1,0.44772 -1,1v2h-1v-1c0,-0.55228 -0.44772,-1 -1,-1c-0.55228,0 -1,0.44772 -1,1v1c-1.10457,0 -2,-0.89543 -2,-2zM35,17h4v4h-4zM25,17h4v4h-4zM22,24v-4h1v2c0,0.55228 0.44772,1 1,1h6c0.55228,0 1,-0.44772 1,-1v-2h2v2c0,0.55228 0.44772,1 1,1h6c0.55228,0 1,-0.44772 1,-1v-2h1v4c0,5.52285 -4.47715,10 -10,10c-5.52285,0 -10,-4.47715 -10,-10zM32,36c0.67056,-0.00428 1.33957,-0.06483 2,-0.181v3.181c0,1.10457 -0.89543,2 -2,2c-1.10457,0 -2,-0.89543 -2,-2v-3.181c0.66043,0.11617 1.32944,0.17672 2,0.181zM54,62h-7.971c0.07972,-0.21598 0.13408,-0.44048 0.162,-0.669l1.556,-14c0.09413,-0.84795 -0.17722,-1.69587 -0.74617,-2.33162c-0.56895,-0.63575 -1.38167,-0.99919 -2.23483,-0.99938h-17.766c-0.55228,0 -1,0.44772 -1,1c0,0.55228 0.44772,1 1,1h17.766c0.28421,0.00026 0.55487,0.12145 0.74436,0.33326c0.18949,0.21182 0.2799,0.49426 0.24864,0.77674l-1.556,14c-0.05603,0.50627 -0.48364,0.88953 -0.993,0.89h-22.42c-0.50936,-0.00047 -0.93697,-0.38373 -0.993,-0.89l-1.556,-14c-0.03126,-0.28248 0.05915,-0.56492 0.24864,-0.77674c0.18949,-0.21182 0.46016,-0.333 0.74436,-0.33326h3.766c0.55228,0 1,-0.44772 1,-1c0,-0.55228 -0.44772,-1 -1,-1h-3.766c-0.85316,0.00019 -1.66588,0.36363 -2.23483,0.99938c-0.56895,0.63575 -0.8403,1.48367 -0.74617,2.33162l1.556,14c0.02792,0.22852 0.08228,0.45302 0.162,0.669h-7.971v-11c0.00716,-6.07216 4.92784,-10.99284 11,-11h7.127c0.45598,1.76611 2.04898,3.00006 3.873,3.00006c1.82402,0 3.41702,-1.23396 3.873,-3.00006h7.127c6.07216,0.00716 10.99284,4.92784 11,11z" fill="#000000"></path><path d="M32,58c2.20914,0 4,-1.79086 4,-4c0,-2.20914 -1.79086,-4 -4,-4c-2.20914,0 -4,1.79086 -4,4c0,2.20914 1.79086,4 4,4zM32,52c1.10457,0 2,0.89543 2,2c0,1.10457 -0.89543,2 -2,2c-1.10457,0 -2,-0.89543 -2,-2c0,-1.10457 0.89543,-2 2,-2z" fill="#000000"></path></g></g></g></svg>